<?xml version="1.0" encoding="UTF-8" standalone="no"?>
<!-- Created with Inkscape (http://www.inkscape.org/) -->

<svg
   xmlns:dc="http://purl.org/dc/elements/1.1/"
   xmlns:cc="http://creativecommons.org/ns#"
   xmlns:rdf="http://www.w3.org/1999/02/22-rdf-syntax-ns#"
   xmlns:svg="http://www.w3.org/2000/svg"
   xmlns="http://www.w3.org/2000/svg"
   xmlns:sodipodi="http://sodipodi.sourceforge.net/DTD/sodipodi-0.dtd"
   xmlns:inkscape="http://www.inkscape.org/namespaces/inkscape"
   version="1.1"
   id="svg2"
   xml:space="preserve"
   width="47.998398"
   height="48"
   viewBox="0 0 47.998398 48"
   sodipodi:docname="linkedin.svg"
   inkscape:version="0.92.2 (5c3e80d, 2017-08-06)"><metadata
     id="metadata8"><rdf:RDF><cc:Work
         rdf:about=""><dc:format>image/svg+xml</dc:format><dc:type
           rdf:resource="http://purl.org/dc/dcmitype/StillImage" /><dc:title></dc:title></cc:Work></rdf:RDF></metadata><defs
     id="defs6" /><sodipodi:namedview
     pagecolor="#ffffff"
     bordercolor="#666666"
     borderopacity="1"
     objecttolerance="10"
     gridtolerance="10"
     guidetolerance="10"
     inkscape:pageopacity="0"
     inkscape:pageshadow="2"
     inkscape:window-width="1920"
     inkscape:window-height="1017"
     id="namedview4"
     showgrid="false"
     inkscape:pagecheckerboard="true"
     inkscape:zoom="4.9166667"
     inkscape:cx="28.18"
     inkscape:cy="24"
     inkscape:window-x="-8"
     inkscape:window-y="-8"
     inkscape:window-maximized="1"
     inkscape:current-layer="g12" /><g
     id="g10"
     inkscape:groupmode="layer"
     inkscape:label="ink_ext_XXXXXX"
     transform="matrix(1.3333333,0,0,-1.3333333,0,47.999999)"><g
       id="g12"
       transform="scale(0.1)"><path
         d="m 306.77,53.2422 h -53.391 v 83.5428 c 0,19.926 -0.344,45.555 -27.742,45.555 -27.785,0 -32.024,-21.715 -32.024,-44.125 V 53.2422 H 140.281 V 225.039 h 51.184 v -23.484 h 0.73 c 7.121,13.504 24.543,27.746 50.52,27.746 54.062,0 64.055,-35.571 64.055,-81.84 z M 80.0781,248.512 c -17.1484,0 -30.9765,13.871 -30.9765,30.965 0,17.089 13.8281,30.964 30.9765,30.964 17.0821,0 30.9449,-13.875 30.9449,-30.964 0,-17.094 -13.8628,-30.965 -30.9449,-30.965 z M 106.785,53.2422 H 53.3398 V 225.039 H 106.785 Z M 333.359,360 H 26.5508 C 11.9063,360 0,348.379 0,334.043 V 25.9766 C 0,11.6406 11.9063,0 26.5508,0 H 333.359 c 14.676,0 26.629,11.6406 26.629,25.9766 V 334.043 c 0,14.336 -11.953,25.957 -26.629,25.957"
         style="fill:#ffffff;fill-opacity:1;fill-rule:nonzero;stroke:none"
         id="path18"
         inkscape:connector-curvature="0" /></g></g></svg>